<?xml version="1.0" standalone="no"?>
<!DOCTYPE svg PUBLIC "-//W3C//DTD SVG 20010904//EN"
 "http://www.w3.org/TR/2001/REC-SVG-20010904/DTD/svg10.dtd">
<svg version="1.0" xmlns="http://www.w3.org/2000/svg"
 width="1024.000000pt" height="1024.000000pt" viewBox="0 0 1024.000000 1024.000000"
 preserveAspectRatio="xMidYMid meet">
<metadata>
Created by potrace 1.11, written by Peter Selinger 2001-2013
</metadata>
<g transform="translate(0.000000,1024.000000) scale(0.100000,-0.100000)"
fill="#000000" stroke="none">
<path d="M5100 10181 c0 -4 -11 -24 -24 -44 -13 -19 -22 -38 -18 -41 3 -3 1
-6 -4 -6 -5 0 -18 -17 -29 -37 -11 -21 -30 -52 -42 -69 -13 -17 -23 -36 -23
-42 0 -6 -3 -12 -7 -14 -5 -1 -32 -39 -62 -83 -55 -80 -180 -247 -223 -296
-13 -15 -43 -51 -68 -80 -60 -72 -281 -294 -350 -351 -103 -87 -125 -104 -180
-143 -30 -22 -61 -45 -68 -52 -7 -7 -17 -13 -22 -13 -5 0 -15 -6 -22 -13 -22
-22 -333 -204 -353 -207 -2 -1 -42 -18 -87 -39 -186 -86 -231 -106 -403 -178
-171 -71 -576 -221 -615 -228 -3 0 -48 -15 -100 -33 -140 -47 -567 -162 -690
-187 -8 -2 -33 -8 -55 -13 -39 -11 -417 -85 -485 -96 -19 -3 -52 -8 -74 -12
-21 -3 -46 -7 -55 -9 -41 -8 -136 -18 -137 -14 0 2 -8 -2 -17 -9 -13 -11 -15
-30 -12 -105 2 -51 7 -180 10 -287 18 -615 33 -945 50 -1090 3 -19 7 -62 11
-95 11 -111 12 -120 19 -170 6 -41 33 -208 49 -300 84 -476 277 -1043 506
-1480 109 -210 122 -233 230 -420 64 -111 277 -438 389 -595 33 -47 80 -114
104 -150 25 -36 55 -76 66 -89 12 -13 21 -27 21 -31 0 -3 8 -15 17 -26 10 -10
79 -100 153 -199 74 -99 139 -185 145 -191 6 -7 40 -49 76 -94 35 -46 89 -113
119 -150 30 -36 66 -81 80 -99 14 -18 34 -42 45 -55 11 -12 36 -42 55 -66 19
-24 44 -54 55 -66 21 -24 27 -32 165 -199 45 -55 92 -111 104 -125 11 -14 67
-79 122 -145 56 -66 129 -145 162 -175 33 -30 136 -128 228 -216 93 -89 185
-176 204 -194 19 -18 111 -105 204 -194 93 -88 188 -179 211 -201 23 -22 115
-110 204 -195 90 -85 193 -184 229 -218 37 -35 100 -95 140 -134 l72 -69 73
70 c39 38 101 98 137 131 36 34 143 137 239 229 96 91 191 182 211 201 20 19
116 111 213 204 98 93 194 184 215 204 33 31 319 303 433 413 25 24 73 75 105
114 32 38 64 75 69 81 6 6 28 33 50 59 22 26 47 55 55 65 75 88 202 240 245
295 17 21 35 43 40 49 6 6 40 47 75 91 36 43 72 88 82 100 9 11 55 68 101 127
47 59 90 113 96 120 12 14 70 89 98 126 10 13 23 29 28 35 6 7 44 57 85 112
40 55 80 106 87 113 7 7 13 17 13 20 0 4 11 19 24 33 13 14 35 43 49 65 15 21
39 57 55 79 115 160 213 303 260 375 75 117 130 204 147 232 5 9 26 43 45 74
66 108 90 149 97 163 3 7 27 51 53 96 26 45 51 92 54 103 4 12 12 22 17 22 5
0 9 6 9 14 0 8 16 42 35 76 19 34 35 64 35 67 0 2 24 57 54 121 87 189 96 210
142 328 57 149 156 448 169 513 2 9 15 61 29 116 42 168 55 225 80 365 24 130
30 169 40 255 12 97 19 151 21 165 2 8 6 51 9 95 4 44 9 96 11 115 7 64 21
338 30 590 28 839 28 789 2 794 -12 2 -87 14 -167 26 -266 39 -763 146 -1020
220 -80 23 -152 43 -160 45 -59 14 -394 124 -525 173 -44 16 -114 42 -155 57
-41 15 -93 35 -115 45 -22 10 -76 32 -120 50 -44 18 -118 50 -163 71 -46 22
-86 39 -88 39 -12 0 -339 164 -342 172 -2 4 -9 8 -16 8 -21 0 -378 240 -416
280 -3 3 -34 30 -70 60 -67 56 -248 234 -310 305 -182 207 -321 396 -475 648
-70 113 -95 145 -95 118z m175 -1913 c287 -94 425 -421 293 -697 -83 -173
-261 -281 -462 -281 -208 1 -407 149 -466 350 -28 93 -31 149 -16 238 19 109
64 193 145 272 63 61 84 75 173 114 83 37 229 38 333 4z m-990 -1489 c138 -19
307 -78 430 -151 108 -64 181 -123 301 -244 l111 -112 90 92 c117 120 171 166
269 231 120 80 258 138 409 172 81 18 335 25 416 12 269 -45 509 -175 679
-365 50 -56 95 -115 110 -144 7 -14 16 -27 19 -30 11 -9 59 -103 81 -160 27
-68 58 -171 65 -219 16 -116 20 -165 19 -241 -6 -310 -90 -567 -277 -844 -34
-51 -148 -199 -167 -216 -3 -3 -34 -39 -70 -80 -103 -119 -374 -385 -561 -552
-72 -64 -151 -132 -176 -151 -15 -12 -30 -24 -33 -28 -5 -6 -55 -49 -150 -129
-29 -25 -58 -50 -64 -55 -6 -6 -49 -42 -96 -80 -47 -38 -87 -72 -90 -75 -3 -3
-27 -23 -55 -45 -27 -21 -52 -42 -55 -45 -3 -3 -27 -24 -55 -45 -27 -22 -59
-49 -71 -60 -11 -11 -38 -33 -60 -50 -21 -16 -70 -56 -108 -88 -60 -50 -71
-56 -85 -44 -51 43 -153 126 -186 152 -21 17 -43 35 -49 40 -12 11 -287 239
-320 265 -31 24 -277 235 -392 335 -433 378 -773 732 -931 970 -62 94 -162
288 -187 365 -87 263 -98 555 -31 810 30 114 102 257 189 375 53 71 187 195
271 250 195 129 391 189 620 192 66 1 152 -3 190 -8z"/>
</g>
</svg>
