<svg viewBox="0 0 500 100" xmlns="http://www.w3.org/2000/svg">
  <defs></defs>
  <path d="M 163.3 92.597 L 150.456 92.543 L 145.954 82.951 L 124.375 82.847 L 129.536 71.876 L 141.274 71.924 L 131.483 49.396 L 112.093 92.547 L 99.452 92.525 L 129.453 25.945 L 133.272 25.903 L 163.3 92.597 Z" style="fill: rgb(255, 255, 255);"></path>
  <polygon style="fill: rgb(255, 255, 255);" points="171.744 92.525 181.874 25.868 185.732 25.916 209.884 72.625 235.562 26.069 238.973 26.015 240.63 39.385 212.703 92.656 208.769 92.676 188.791 55.969 183.848 92.481"></polygon>
  <polygon style="fill: rgb(255, 255, 255);" points="235.111 67.545 243.4 54.86 249.026 92.464 238.378 92.337"></polygon>
  <polygon style="fill: rgb(255, 255, 255);" points="262.086 26.051 262.045 56.989 273.792 57.114 273.597 25.992"></polygon>
  <path style="fill: rgb(255, 255, 255);" d="M 303.787 25.911 L 315.654 25.947 L 315.377 65.757 L 315.35 66.63 C 315.15 80.782 305.929 93.386 288.523 93.386 C 271.284 93.386 263.239 80.763 262.561 67.04 C 262.692 66.658 262.644 66.923 262.644 66.923 C 262.644 66.923 266.815 66.592 273.512 66.847 C 273.554 67.618 273.684 68.437 273.783 69.073 C 274.976 76.113 281.234 81.276 288.647 81.276 C 296.913 81.276 303.58 74.62 303.58 66.394 C 303.58 66.015 303.601 65.624 303.572 65.251 L 303.787 25.911 Z"></path>
  <polygon style="fill: rgb(255, 255, 255);" points="329.59 53.394 329.689 92.714 341.231 92.762 340.752 65.098"></polygon>
  <path d="M 370.958 67.48 L 371.166 26.056 L 382.45 26.017 L 382.669 92.495 L 378.724 92.505 L 329.099 39.301 L 329.257 26.043 L 332.327 26.055 L 370.958 67.48 Z" style="fill: rgb(255, 255, 255);"></path>
  <circle style="fill: rgb(255, 255, 255);" cx="399.725" cy="85.896" r="6.012"></circle>
  <path d="M 477.342 92.455 L 464.592 92.496 L 459.964 82.652 L 438.385 82.548 L 443.546 71.577 L 455.283 71.624 L 445.493 49.097 L 426.102 92.338 L 413.496 92.443 L 443.219 26.04 L 447.151 26.014 L 477.342 92.455 Z" style="fill: rgb(255, 255, 255);"></path>
  <polygon style="fill: rgb(255, 255, 255);" points="485.605 26.098 486.091 92.545 497.619 92.498 497.619 26.058"></polygon>
  <path style="fill: rgb(255, 255, 255);" d="M 53.45 18.503 C 60.88 22.07 68.779 24.423 77.145 25.563 L 76.926 32.523 C 76.579 50.565 71.554 60.21 53.558 81.202 L 39.886 94.229 L 26.133 81.12 C 8.136 60.129 3.112 50.482 2.766 32.443 L 2.546 25.483 C 10.913 24.341 18.812 21.988 26.242 18.422 C 32.168 15.58 36.301 11.116 39.823 5.011 C 43.356 11.156 47.499 15.648 53.45 18.503 Z M 40.613 67.566 C 55.012 55.847 58.917 51.718 58.917 45.023 C 58.917 39.44 54.455 34.975 48.871 34.975 C 44.296 34.975 41.729 37.543 39.945 39.553 C 38.158 37.543 35.591 34.975 31.015 34.975 C 25.435 34.975 20.97 39.44 20.97 45.023 C 20.97 51.718 24.878 55.847 39.274 67.566 L 39.945 68.125 Z M 39.861 21.746 C 37.415 21.746 35.434 23.727 35.434 26.172 C 35.434 28.615 37.415 30.597 39.861 30.597 C 42.305 30.597 44.286 28.615 44.286 26.172 C 44.286 23.727 42.305 21.746 39.861 21.746 Z"></path>
</svg>