<?xml version="1.0" encoding="UTF-8"?>
<svg xmlns="http://www.w3.org/2000/svg" xmlns:xlink="http://www.w3.org/1999/xlink" width="2046pt" height="532pt" viewBox="0 0 2046 532" version="1.1">
<g id="surface1">
<path style=" stroke:none;fill-rule:nonzero;fill:rgb(100%,100%,100%);fill-opacity:1;" d="M 694.207031 406.4375 L 647.496094 406.238281 L 631.125 371.355469 L 552.644531 370.976562 L 571.414062 331.074219 L 614.101562 331.246094 L 578.496094 249.316406 L 507.976562 406.253906 L 462.007812 406.171875 L 571.113281 164.023438 L 585.003906 163.867188 Z M 694.207031 406.4375 "/>
<path style=" stroke:none;fill-rule:nonzero;fill:rgb(100%,100%,100%);fill-opacity:1;" d="M 724.914062 406.171875 L 761.757812 163.738281 L 775.785156 163.917969 L 863.625 333.796875 L 957.007812 164.472656 L 969.414062 164.273438 L 975.441406 212.902344 L 873.875 406.652344 L 859.570312 406.726562 L 786.910156 273.21875 L 768.9375 406.015625 Z M 724.914062 406.171875 "/>
<path style=" stroke:none;fill-rule:nonzero;fill:rgb(100%,100%,100%);fill-opacity:1;" d="M 955.367188 315.320312 L 985.511719 269.183594 L 1005.972656 405.957031 L 967.25 405.496094 Z M 955.367188 315.320312 "/>
<path style=" stroke:none;fill-rule:nonzero;fill:rgb(100%,100%,100%);fill-opacity:1;" d="M 1053.472656 164.40625 L 1053.320312 276.929688 L 1096.042969 277.386719 L 1095.335938 164.191406 Z M 1053.472656 164.40625 "/>
<path style=" stroke:none;fill-rule:nonzero;fill:rgb(100%,100%,100%);fill-opacity:1;" d="M 1205.128906 163.902344 L 1248.285156 164.027344 L 1247.277344 308.820312 L 1247.179688 311.992188 C 1246.453125 363.464844 1212.917969 409.3125 1149.613281 409.3125 C 1086.921875 409.3125 1057.664062 363.398438 1055.199219 313.488281 C 1055.675781 312.097656 1055.5 313.0625 1055.5 313.0625 C 1055.5 313.0625 1070.667969 311.855469 1095.023438 312.785156 C 1095.179688 315.589844 1095.652344 318.570312 1096.011719 320.878906 C 1100.351562 346.484375 1123.109375 365.261719 1150.070312 365.261719 C 1180.132812 365.261719 1204.378906 341.058594 1204.378906 311.132812 C 1204.378906 309.753906 1204.453125 308.335938 1204.347656 306.976562 Z M 1205.128906 163.902344 "/>
<path style=" stroke:none;fill-rule:nonzero;fill:rgb(100%,100%,100%);fill-opacity:1;" d="M 1298.96875 263.851562 L 1299.328125 406.867188 L 1341.300781 407.039062 L 1339.5625 306.417969 Z M 1298.96875 263.851562 "/>
<path style=" stroke:none;fill-rule:nonzero;fill:rgb(100%,100%,100%);fill-opacity:1;" d="M 1449.410156 315.082031 L 1450.171875 164.425781 L 1491.207031 164.28125 L 1492.003906 406.066406 L 1477.65625 406.105469 L 1297.179688 212.597656 L 1297.757812 164.375 L 1308.925781 164.421875 Z M 1449.410156 315.082031 "/>
<path style=" stroke:none;fill-rule:nonzero;fill:rgb(100%,100%,100%);fill-opacity:1;" d="M 1575.898438 382.070312 C 1575.898438 394.144531 1566.109375 403.933594 1554.035156 403.933594 C 1541.960938 403.933594 1532.171875 394.144531 1532.171875 382.070312 C 1532.171875 369.996094 1541.960938 360.203125 1554.035156 360.203125 C 1566.109375 360.203125 1575.898438 369.996094 1575.898438 382.070312 Z M 1575.898438 382.070312 "/>
<path style=" stroke:none;fill-rule:nonzero;fill:rgb(100%,100%,100%);fill-opacity:1;" d="M 1836.3125 405.925781 L 1789.941406 406.070312 L 1773.113281 370.269531 L 1694.632812 369.886719 L 1713.402344 329.988281 L 1756.089844 330.160156 L 1720.480469 248.226562 L 1649.964844 405.5 L 1604.117188 405.875 L 1712.214844 164.367188 L 1726.511719 164.269531 Z M 1836.3125 405.925781 "/>
<path style=" stroke:none;fill-rule:nonzero;fill:rgb(100%,100%,100%);fill-opacity:1;" d="M 1866.359375 164.578125 L 1868.128906 406.246094 L 1910.050781 406.078125 L 1910.050781 164.433594 Z M 1866.359375 164.578125 "/>
<path style=" stroke:none;fill-rule:nonzero;fill:rgb(100%,100%,100%);fill-opacity:1;" d="M 294.707031 136.953125 C 321.726562 149.921875 350.457031 158.484375 380.882812 162.632812 L 380.085938 187.941406 C 378.820312 253.5625 360.550781 288.644531 295.097656 364.992188 L 245.382812 412.375 L 195.359375 364.699219 C 129.910156 288.351562 111.636719 253.265625 110.382812 187.652344 L 109.578125 162.34375 C 140.007812 158.1875 168.738281 149.628906 195.757812 136.664062 C 217.308594 126.320312 232.339844 110.085938 245.148438 87.882812 C 257.996094 110.234375 273.0625 126.570312 294.707031 136.953125 Z M 248.019531 315.402344 C 300.390625 272.777344 314.589844 257.757812 314.589844 233.40625 C 314.589844 213.101562 298.359375 196.863281 278.054688 196.863281 C 261.417969 196.863281 252.082031 206.203125 245.589844 213.511719 C 239.089844 206.203125 229.761719 196.863281 213.117188 196.863281 C 192.824219 196.863281 176.582031 213.101562 176.582031 233.40625 C 176.582031 257.757812 190.792969 272.777344 243.152344 315.402344 L 245.589844 317.429688 Z M 245.285156 148.746094 C 236.390625 148.746094 229.1875 155.953125 229.1875 164.847656 C 229.1875 173.730469 236.390625 180.9375 245.285156 180.9375 C 254.175781 180.9375 261.375 173.730469 261.375 164.847656 C 261.375 155.953125 254.175781 148.746094 245.285156 148.746094 Z M 245.285156 148.746094 "/>
</g>
</svg>
